<svg xmlns="http://www.w3.org/2000/svg" width="256" height="256" viewBox="0 0 100 100"><rect width="100" height="100" rx="0" fill="#000000"></rect><path fill="#fff" d="M16.52 81.50L16.52 18.50L31.46 18.50Q39.11 18.50 42.62 22.05Q46.13 25.61 46.13 32.99L46.13 32.99L46.13 35.51Q46.13 40.37 44.55 43.43Q42.98 46.49 39.74 47.84L39.74 47.84L39.74 48.02Q47.12 50.54 47.12 61.16L47.12 61.16L47.12 66.56Q47.12 73.85 43.29 77.67Q39.47 81.50 32.09 81.50L32.09 81.50L16.52 81.50ZM26.42 44.15L30.29 44.15Q33.26 44.15 34.74 42.62Q36.23 41.09 36.23 37.49L36.23 37.49L36.23 33.98Q36.23 30.56 35.01 29.03Q33.80 27.50 31.19 27.50L31.19 27.50L26.42 27.50L26.42 44.15ZM26.42 72.50L32.09 72.50Q34.70 72.50 35.96 71.11Q37.22 69.71 37.22 66.29L37.22 66.29L37.22 60.80Q37.22 56.48 35.73 54.81Q34.25 53.15 30.83 53.15L30.83 53.15L26.42 53.15L26.42 72.50ZM52.88 81.50L52.88 18.50L67.82 18.50Q75.47 18.50 78.98 22.05Q82.49 25.61 82.49 32.99L82.49 32.99L82.49 35.51Q82.49 40.37 80.91 43.43Q79.34 46.49 76.10 47.84L76.10 47.84L76.10 48.02Q83.48 50.54 83.48 61.16L83.48 61.16L83.48 66.56Q83.48 73.85 79.66 77.67Q75.83 81.50 68.45 81.50L68.45 81.50L52.88 81.50ZM62.78 44.15L66.65 44.15Q69.62 44.15 71.10 42.62Q72.59 41.09 72.59 37.49L72.59 37.49L72.59 33.98Q72.59 30.56 71.38 29.03Q70.16 27.50 67.55 27.50L67.55 27.50L62.78 27.50L62.78 44.15ZM62.78 72.50L68.45 72.50Q71.06 72.50 72.32 71.11Q73.58 69.71 73.58 66.29L73.58 66.29L73.58 60.80Q73.58 56.48 72.09 54.81Q70.61 53.15 67.19 53.15L67.19 53.15L62.78 53.15L62.78 72.50Z"></path></svg>