<?xml version="1.0" encoding="UTF-8"?>
<svg id="Lag_2" data-name="Lag 2" xmlns="http://www.w3.org/2000/svg" viewBox="0 0 1920 540">
  <defs>
    <style>
      .cls-1 {
        font-family: BebasNeue-Regular, 'Bebas Neue';
        font-size: 179.98px;
        isolation: isolate;
      }
    </style>
  </defs>
  <g>
    <path d="M.6,404.9c16,.1,32-.2,47.9-1,7.9-.4,15.8-.8,23.6-1.4,3.9-.3,7.9-.6,11.8-.9,3.3-.3,7.1-.2,9.8-2.4,2.8-2.4,3.1-6.3,1-9.2s-5.4-4.7-8.7-5.8c-1.7-.5-3.1,.6-3.7,2.1-2.7,6.5,1.3,13.4,6.6,17,2.7,1.9,5.9,3.1,9,4.2,3.4,1.2,6.9,2.3,10.3,3.4,14.4,4.5,29.1,8.2,44.1,9.8,25.6,2.8,52.4-1.2,74-16.1,9.6-6.6,17.9-15.2,23.5-25.6,3.3-6.1,5.4-12.8,7.5-19.4s5.4-13.4,8.2-20.1,4.3-13.7,4.4-20.9-1.1-14.3-2.9-21.2c-3.7-14.2-10-27.5-15.1-41.2s-9.5-28.3-13.1-42.8c-1.8-7.2-3.3-14.5-4.7-21.9s-2.3-14.8-3.8-22.1c-2.4-12.3-7.8-23.5-16.2-32.9-7.9-8.8-18-15.5-29.1-19.4-24.2-8.4-52.3-2.1-71.3,14.8-9.4,8.3-16.5,19-20.8,30.7-2.2,5.8-3.5,11.9-4.2,18-.8,7.8-.3,15.6-.6,23.4-1.1,27.3-15.4,51.5-23,77.2-4,13.8-5.7,28-4.7,42.3,.5,7.3,1.7,14.6,3.3,21.7,1.6,6.7,3.5,13.4,6.2,19.7,2.4,5.5,5.8,10.5,11,13.6,2,1.2,4.4-.4,4.5-2.6,.9-20.7-3.5-41.4-12.6-60l-4.7,3.6c6.9,8.8,19.2,9.6,29.2,6.9,5.5-1.5,10.7-3.8,15.8-6.2,4.8-2.2,9.4-4.7,13.9-7.5,18-11.3,33.2-28.2,38.1-49.4,1.3-5.8,1.9-11.9,1.4-17.9-.4-5-2.1-11.8-8.4-11.9-3.3-.1-4.2,5.2-.8,5.9,17.7,3.7,36.5-4.4,46.9-19,6.2-8.7,8.1-19.4,8.5-29.8,.4-11-.9-22.4-6.3-32.1-8.8-15.9-27.2-26-45.3-25.3-18.5,.7-35.7,12.3-44.4,28.5-5.1,9.4-7.8,20.8-4.8,31.3s10.1,18.5,16.7,26.5c6.2,7.6,13.1,15.2,22,19.7,2.2,1.1,4.5,1.9,6.9,2.8,.3,.1,1.3,.6,1.3,.6,.1,.1,.1,.6,0,.1,0,0,0-.3,.1-.3s-.2,.3-.5,.6c-2.8,2.4-7.7,1-10.9-.1-8.8-3-15.7-10.1-21.3-17.3-6.8-8.7-12.5-18.3-17.8-28-1-1.8-1.8-3.6-2.3-5.7-.2-.7-.2-1.6-.1-2.4,.1-.3,.3-.9,.7-1.2,1.4-1.2,4.8-.7,6.6-.8,2.9-.1,5.8-.3,8.8-.6,11.1-1.2,22.6-3.4,32.9-7.9,4.1-1.8,8-4.1,11.1-7.4s5.5-7.5,5.3-11.9-2.9-9.1-7.3-10.3c-2.2-.6-4.7,.1-6.3,1.7-1.9,1.8-2.4,4.4-1.9,6.9,.9,4.9,5.1,8.2,8.9,11.1,4,3,8.4,5.7,12.9,7.9,9.4,4.5,19.5,7.3,29.9,8.1,5,.4,9.9,.3,14.9-.2l-2.6-4.5c-7.4,9.7-7.9,22.3-12.1,33.3-3.8,10-11.9,18.2-21.6,22.7-2.4,1.1-5,2-7.6,2.6s-5.5,.9-8.2,1.8c-2.9,1-5.4,2.6-7,5.2-1.5,2.4-1.8,5.4-1.5,8.2,.8,6.2,4.3,11.7,7.2,17s6.1,10.7,9.7,15.7,8,10,12.9,14c5.3,4.2,11.1,7.5,17.1,10.5s12.4,6.2,18.8,8.7c5.9,2.2,12.4,4,18.8,3.8,5.1-.2,10.8-1.8,14.1-5.9,3.6-4.6,3.1-10.7-.3-15.2-3.8-4.9-9.6-8-15.4-9.8s-12.6-2.1-17.9,1.6c-9.5,6.7-10.8,19.4-9.6,30,.8,6.9,2.3,14,1.3,21-.8,5.4-3.2,10.5-6.5,14.9-7.4,9.8-18.9,15.1-30.6,17.8-6.4,1.5-13,2.3-19.6,2.7s-13.8,.1-20.4-1.5c-10.7-2.6-21.3-9.1-25.6-19.7-2.4-5.9-3.4-12.8-3.6-19.2-.1-3.1,.2-6.2,1.8-8.9,1.3-2.3,3.3-4.2,5.5-5.7,5.2-3.7,11.2-6.5,17.1-9,6.3-2.6,12.8-4.7,19.4-6.3,6.1-1.4,12.9-2.9,19.1-1,5.6,1.7,9.5,6.7,13.3,10.8,8.1,8.6,19.2,15.1,22.8,27,1.8,5.8,2,11.9,1.6,17.9s-1.2,12.4-2.6,18.3c-.6,2.6-1.7,4.7-4.1,6s-5.2,1.7-7.8,2.1c-7.1,1.1-14.3,1.9-21.5,2.4-14.5,1.1-29.1,1.3-43.7,.4-7.1-.4-14.1-1.1-21.2-1.9-1-.1-2.1,.7-2.6,1.5-2.4,4.2-.4,9.3,3.5,11.8,4.1,2.7,9.8,2.6,14.6,2.9,10.8,.6,21.7-.1,32.4-2,1.6-.3,2.5-2.2,2.1-3.7-.5-1.7-2.1-2.4-3.7-2.1-8.8,1.5-17.8,2.2-26.7,1.9-4.1-.1-8.5-.1-12.5-1-2-.4-5.9-2.3-4.4-4.8l-2.6,1.5c29.2,3.6,58.8,3.3,87.9-1.1,5.9-.9,12.1-2.7,14.9-8.6,1.3-2.9,1.8-6,2.3-9,.5-3.2,1-6.5,1.4-9.8,1.4-12.6,.5-25.7-7.6-36.1-3.8-4.8-8.5-8.6-13-12.7s-8.1-8.9-12.7-12.7c-5.4-4.4-11.6-6.2-18.6-5.7s-13.7,2.2-20.3,4.2-12.8,4.5-18.9,7.5c-5.6,2.7-11.6,5.8-15.8,10.4-4.7,5.2-5.7,11.9-5.1,18.7s1.7,13.7,4.6,19.9c5,10.8,15.8,18,26.9,21.1,13.3,3.7,27.8,2.6,41.2,.1,12.5-2.4,25-7.3,34-16.6,4.1-4.2,7.4-9.2,9.4-14.7,2.3-6.2,2.5-12.8,1.8-19.3s-2.1-13.3-1.5-19.9c.4-4.4,1.9-9.2,4.9-12.6,3.7-4.2,8.9-4.8,14.2-3.3,5,1.4,10.9,4.1,13.8,8.8,2.4,4,.5,7.7-3.4,9.5-4.9,2.2-10.7,1.4-15.7,.1-6.6-1.6-12.7-4.5-18.7-7.4s-12.3-5.9-18-9.7c-10.5-6.9-17.8-17.1-23.9-27.9-1.6-2.8-3.1-5.5-4.6-8.3-1.4-2.5-2.7-5-3.4-7.8-.6-2.2-1-4.8,.4-6.7s3.9-2.6,6.1-3c2.7-.6,5.4-.9,8-1.8,2.8-.8,5.5-1.9,8-3.3,5-2.6,9.6-6.1,13.4-10.3s6.9-9.1,9.1-14.5,3.4-11.4,4.9-17.1,3.4-10.8,6.9-15.4c1.3-1.7-.4-4.8-2.6-4.5-19.4,2.2-39.2-3.2-54.7-14.9-1.6-1.2-3.3-2.5-4.6-4.1-.5-.7-1-1.4-1.3-2.2-.1-.3-.3-1-.3-1.1-.1-.5-.1-.7,.1-.9-.2,.3,.1-.1,.2-.1,.4-.3,0-.1,.4-.2-.4,.1-.1,0,.1,0-.2,0-.4-.1,.1,.1q.3,.1,.7,.4c.9,.7,1.8,2.3,2,3.7,.4,3.1-2.1,6.7-4.4,8.9-2.9,2.7-6.6,4.6-10.3,6.1-10,3.9-21,6-31.7,6.9-2.8,.2-5.7,.4-8.5,.4-2.5,.1-5.1,.2-7.1,1.8-3.8,2.8-3.8,7.8-2.5,11.9,1.6,4.8,4.6,9.3,7.1,13.7,2.8,4.8,5.8,9.5,9,14.1,5.3,7.8,11.4,15.2,19.2,20.6,3.7,2.6,7.9,4.6,12.3,5.7s9.2,1.5,13.1-1.3c1.8-1.3,3.3-3.2,3.4-5.5,0-2.5-1.6-4.6-3.7-5.7-2-1-4.2-1.4-6.2-2.4s-4.1-2.1-6-3.4c-7.7-5.3-13.7-13-19.5-20.2s-12.3-15.9-12.7-25.9c-.3-9.4,3.5-18.8,9-26.3,5-6.7,11.8-12.1,19.4-15.6,15.3-7,33.6-4.1,46.4,6.7,6.8,5.7,11.5,13.2,13.6,21.8,1.3,5.3,1.7,10.7,1.7,16.1s-.4,10.8-1.6,16.1c-2,8.5-6.5,15.7-13.2,21.3-6,5-13.7,8.4-21.5,9.2-3.8,.4-7.7,.3-11.5-.5l-.8,5.9c.6,0,0-.1,.3,0,.1,.1,.3,.2,.6,.5,.3,.4,.7,1.2,.9,1.8,.6,1.9,.7,4,.8,6,.2,4.6-.3,9.3-1.3,13.8-2.1,9.2-6.4,18-12.2,25.4s-13,13.7-20.8,18.9-16.7,9.8-25.7,13-21.4,5-28.3-3.8c-.9-1.2-2.9-1.1-3.9-.2-1.2,1-1.4,2.5-.8,3.9,8.6,17.7,12.6,37.4,11.7,57l4.5-2.6c-4.6-2.8-7.4-7.7-9.3-12.6-2.5-6.3-4.3-13-5.7-19.6-2.9-13.9-3.8-28-1.9-41.8,3.7-26,17.5-49.1,23.8-74.5,1.6-6.4,2.7-12.9,3.1-19.5,.4-7.4,0-14.9,.5-22.4,.8-11.8,4.8-23.2,11.2-33.1,13.1-20.1,36.2-31.9,60.2-30.8,22.5,1.1,43.2,14.8,53.2,34.9,6,12.1,6.8,25.9,9.2,39,2.6,14.1,6,28.1,10.2,41.8s9.2,27,14.5,40.2c5.1,12.7,10.2,26,10.9,39.8,.3,6.8-.6,13.4-2.9,19.8s-5.6,12.6-8,19.2-4,13-6.9,19.2c-2.4,4.9-5.4,9.6-8.9,13.7-14.7,17.1-37.2,26.4-59.4,28.2-14.3,1.1-28.6-.4-42.5-3.3-7.1-1.5-14.1-3.4-21-5.4-3.5-1-6.9-2.1-10.3-3.3-3-1-6.1-1.9-8.9-3.3-4.4-2.2-9-6.7-6.8-12l-3.7,2.1c1.9,.6,4.2,1.7,5.3,3.3,.3,.4,.4,.7,.4,.8s0,.2-.1,.3c-.5,.6-1.5,.8-2.3,.9-3.2,.5-6.5,.6-9.7,.8-3.5,.3-7.1,.5-10.6,.8-14.2,.9-28.4,1.5-42.6,1.8H.6c-3.9,0-3.9,6,0,5.9H.6Z"/>
    <path d="M158.4,406.4c10.8,2.3,21.8,2.6,32.6,1,5.3-.8,10.4-2,15.5-3.7,4.6-1.6,9.3-3.4,13.5-6.1,4.7-3,8.4-6.9,10.5-12l-5.9-.8c-.3,5.2,.2,10.8,3.8,14.9s9.6,4.8,14.9,4.3c6.1-.6,12.1-1.6,18.2-2.3,6.5-.7,13-1.3,19.6-1.8,7.4-.5,14.7-.9,22.1-1.1,1.7,0,2.9-1.3,3-3,.2-3.7-3.6-6-6.9-5.4s-5.1,4-4.7,7.1c.4,3.5,2.9,6,5.9,7.7s6,3,9.2,4.3c12.6,5,26.2,6.9,39.7,7.6,7.6,.4,15.1,.4,22.7,.5,3.9,0,3.9-6,0-6-22.2,0-45.9,0-66.2-10.3-1.2-.6-2.6-1.2-3.7-2.1-.4-.3-.8-.7-1.1-1-.4-.5-.5-.7-.5-1.1,0,.3,0-.6,0-.6,0,.4,.1-.4,.1-.5-.1,.4,.1-.1,.1-.1,0,0-.5,.6-.3,.3h.1c-.3,0-.3,.1,0,.1q-.3,0-.1,0c.2,.1,.2,0-.1,0,.5,.1,.1,.2,0,0s-.2-1-.3-.5l3-3c-12.3,.4-24.6,1.2-36.8,2.4-6.1,.6-12.3,1.4-18.4,2.2-4.2,.6-9.7,1.8-13.4-.3-1.9-1.1-2.9-2.8-3.4-4.8-.6-2.4-.6-4.9-.5-7.5,.1-1.5-1.2-2.8-2.6-3-1.6-.2-2.7,.7-3.3,2.1-3,7.5-12.2,11.3-19.4,13.8-9.2,3.2-19,4.8-28.8,4.7-5.6-.1-11.1-.7-16.6-1.8-1.6-.3-3.2,.5-3.7,2.1-.4,1.5,.5,3.4,2.2,3.7h0Z"/>
    <path d="M371.6,417c15.7,2.4,31.4-4.2,42.4-15.2s17.9-26.5,21.8-41.7c2.3-8.8,3.4-18,2-27-1.2-7.8-4.5-15.1-8-22.2s-7.3-13.5-10-20.7c-3-8-4.4-16.5-5.4-25-1.9-16.1-2.6-32.8-10.2-47.5-6.8-13.2-19.3-22.1-33.7-25.3s-31.5-1.5-43.6,8c-12.7,9.9-18.8,25.6-21.5,41-.8,4.3-1.3,8.7-1.8,13.1s-.9,8.7-2,12.9c-2.1,8-6.7,15-10.2,22.3-6.8,14.5-11,30.1-11.9,46.1s1.9,31.7,9,45.8c1.7,3.3,4.5,6.8,8.6,6.8s6.4-3.1,7.6-6.6c1.2-3.7,1.1-7.9,1.1-11.7,0-4.6-.3-9.1-.9-13.6s-1.4-8.7-2.6-12.9c-.9-3.2-2.6-6.6-5.2-8.8-1.5-1.2-3.1-2-5-2.2-.8-.1-1.7,0-2.5,.2-1.5,.4-2.2,1.7-2.6,3.1-1.1,3.8,.7,7.6,3.3,10.3,5.7,6,15.2,6.9,23,6.4,8.2-.5,16.9-2,23.1-7.9,3.1-2.9,5.5-6.6,7.9-10,2.6-3.6,5.1-7.3,7.5-11.1s4.7-7.4,7-11.2,4.8-7.5,5.7-11.7c1.8-8.2-3.6-15-10.1-19.4-6-4-13.6-5.8-18.5-11.2-2.5-2.8-4.1-6.4-5.3-9.8-1.4-3.8-2.4-7.9-2.9-11.9-.8-7.4,.2-15.1,3.8-21.6,3.2-5.8,8.1-10.7,14.5-12.9,7.6-2.7,15.8-1.7,23.5,.1,6.7,1.6,14.8,3.5,18.7,9.5s4.1,13.1,3.8,19.9c-.6,14.3-5.7,30.3-19.9,36.4-3,1.3-6.1,1.9-9.3,1.8-1.6,0-2.9-.2-4.5-.7-1.2-.4-2.2-1.1-2.8-2.2l-4.1,4.1c1.2,.8,1.6,1.1,2.6,2,.9,.8,1.8,1.7,2.5,2.6,.6,.7,1,1.3,1.7,2.4s1.3,2.1,1.9,3.2c2.3,4.4,3.8,8.8,5.6,13.6s3.7,9.8,6.5,14.3c3.3,5.2,7.7,9.2,13,12.2,6.4,3.7,13.3,6.8,19.9,10,3.5,1.8,7.1,3.5,10.6,5.3,1.6,.8,3.2,1.8,5,2.2,2.1,.5,4.2-.2,5.6-1.9,2.2-2.6,3.1-6.5,3.1-9.9s-.9-6.5-2.5-9.3c-3.3-5.5-9.9-9.2-16.4-8.8-4.5,.3-8,2.4-9.6,6.7-1.4,3.8-2.3,7.8-3.2,11.8-1.8,8.4-2.8,16.9-3.1,25.4-.1,3.9,5.9,3.9,6,0,.2-6.8,.9-13.6,2.1-20.3,.6-3.4,1.4-6.7,2.3-10,.4-1.5,.8-3,1.3-4.5,.4-1.1,.8-2.1,1.9-2.5,2.1-1,4.8-.6,7,.1s4.4,2.3,5.8,4.2c1.5,2,2.3,4.5,2.3,6.9,0,1.3-.1,2.4-.4,3.6-.2,.6-.3,1.1-.6,1.7-.1,.2-.2,.5-.4,.7-.1,.1-.8,1.2-.1,.3,.2-.2,.9,.3,0-.1-.3-.1-.6-.3-.9-.4-.7-.4-1.5-.7-2.2-1.1-1.6-.8-3.2-1.6-4.9-2.4-3.2-1.6-6.5-3.2-9.8-4.9-5.9-3-12.1-5.6-17.8-9.2-4.4-2.8-7.4-6.1-9.8-10.4s-3.8-7.9-5.4-12.4c-3.7-9.9-7.4-20.5-16.8-26.5-2.6-1.7-5.5,1.6-4.1,4.1,3,5.3,10,6.3,15.5,5.8,6-.6,11.5-3,16.2-6.7,9.9-7.7,14.2-19.8,15.6-31.8,1.2-10.8,1-24.4-7.5-32.4-4.6-4.2-10.7-6.1-16.6-7.7-6.2-1.6-12.7-2.8-19.1-2.5s-12.4,2-17.5,5.6c-4.6,3.3-8.4,7.7-11,12.7-5.9,11.4-5.5,25-1.3,36.9,2.1,5.9,4.9,11.6,9.9,15.5,4.6,3.6,10.2,5.6,15.2,8.5,4.1,2.4,8.5,6.2,9.1,10.7,.4,3-.9,5.8-2.4,8.3-1.6,2.9-3.4,5.7-5.1,8.5-3.6,5.9-7.5,11.7-11.5,17.4-3.4,4.9-6.8,10.4-12.4,13.1-2.6,1.2-5.5,1.9-8.4,2.3-3,.5-6.1,.8-9.1,.8-5.3,0-11.8-.8-15.5-4.9-.6-.7-1.2-1.6-1.5-2.3-.2-.6-.2-.8-.2-1.2,0-.6,0-.8,.2-1.1l-1.8,1.4c.6-.1,.3-.1,.1,0h.6c-.5,0-.1,0,.1,0s.4,.1,.5,.2c-.5-.2,.5,.3,.6,.4-.1-.1-.4-.3,.1,.1,.2,.2,.4,.4,.6,.5,1,1,1.9,2.8,2.4,4.1,1.6,4.5,2.4,9.4,3,14.1,.6,5.2,.9,10.5,.7,15.7-.1,2.3-.1,4-.6,5.9-.3,.9-.3,1-.7,1.8-.3,.5-.5,.8-1,1,.5-.2,0,0-.1,0,.5,0-.1,0-.1,0-.7-.1-.3,0-.2,0-.5-.1-.4-.1-.2,0-.6-.3-1.2-.8-1.6-1.4-1.3-1.7-2.2-3.8-3-5.8-1.8-4-3.1-8.2-4.2-12.4-2.2-8.7-2.9-17.7-2.4-26.7s2.1-18.1,4.8-26.8,6.6-17.2,10.9-25.5c2.3-4.5,4.5-9,6-13.9,1.5-5.1,2-10.4,2.5-15.6,1-9.8,2.7-19.6,6.3-28.8,3.1-7.8,7.9-14.9,14.4-20.2s15.5-7.8,23.9-8.2c15.8-.8,32.5,5.1,41.7,18.5,10.7,15.6,10.7,35.4,13,53.5,.7,5.2,1.5,10.4,2.8,15.5,1.2,4.7,2.9,9.3,5,13.7,3.7,8.2,8.5,16,11.9,24.4,1.6,4.2,3,8.5,3.6,13,.6,5,.4,10.1-.4,15-1.5,9.3-4.5,18.6-8.5,27.1-3.8,8.1-8.8,15.6-15.4,21.7s-14.2,10-22.7,11.6c-3.9,.8-8,.9-12,.3-1.6-.2-3.2,.4-3.7,2.1-.5,1.4,.4,3.4,2,3.7h0Z"/>
    <path d="M394.9,365.1v4.1c0,1,.5,2.2,1.5,2.6,1.5,.7,3.1,1,4.7,.5,1.2-.4,2.2-1.6,2.2-2.9-.3-9.8-5.1-19.2-12.5-25.6-3.7-3.2-8-5.7-12.7-7.2-5.5-1.7-11.2-1.7-16.8-.9s-11.1,2.1-16.3,4-9.8,4.1-13.9,7.6c-8.5,7.2-12,19.4-7.9,29.9,2,5,5.4,9.3,9.8,12.4,4.9,3.4,10.8,4.6,16.6,5.8,6.4,1.3,12.7,1.9,19.2,.7,5.8-1.1,11.3-3.5,16.6-6.1,4.8-2.4,10.9-5.2,12.2-11.1,.6-2.8,.1-5.9-2-8-1.9-1.9-4.6-2.4-7.2-1.9-5.6,1.2-8.2,7.2-6.2,12.3,1,2.7,2.9,4.8,5.3,6.4,1,.6,2.1,1.1,3,1.9,.7,.6,1,1.3,1.2,2.3,.1,.5,0,1.6-.2,2.1-.4,.9-1,1.5-1.9,2-2.1,1.2-5,1.6-7.5,2-5.9,1.1-11.9,1.6-17.8,1.8-12,.3-24-1.1-35.6-4.3-2.9-.8-5.7-1.7-8.5-2.7-1.5-.5-3.3,.6-3.7,2.1-1.1,4.3,1.2,8.6,4.9,10.8s8.4,2.6,12.7,3.4c9.5,1.6,19,3,28.6,3.5,16.7,.7,34.6-2,48.5-11.9,3.4-2.4,6.7-5.4,7.9-9.5,1-3.4,.1-7.7-2.6-10.2-3.5-3-9.3-2.5-10.2,2.6-.8,4.6-.2,9.4,1.7,13.6,.9,1.9,2.2,3.8,4.2,4.7,2.2,1,4.5,1,6.9,1h14.4c4.8,0,9.6-.2,14.4-.4s9.2-.2,13.7-.9c3.8-.6,7.9-3,7.9-7.4,0-4-3.8-7.7-7.9-7.2-5,.6-4.3,7.5-2.3,10.7,2.3,3.7,6.1,5.4,10.1,6.6,1.9,.6,3.8,1,5.6,1.9,1.5,.7,3.2,.4,4.1-1.1,.8-1.3,.4-3.4-1.1-4.1-1.9-1-3.9-1.6-6-2.2-1.7-.5-3.5-1-5.1-1.8-1.2-.7-2.1-1.5-2.7-2.7-.6-1.1-.6-1.9-.2-2.6l-1.8,1.4c.6-.1-.1-.2,.4,0-.6-.2,.3,.3,0,0s.5,.3,.4,.3c-.4-.3,.3,.4,0,0,.1,.2,.2,.3,.3,.5-.2-.4,.1,.4,.1,.4-.1-.5,0,0,0,.1q0-.3-.1,.1c.1-.2,0-.2-.1,.1,.1-.1,.3-.3-.1,.1-.6,.5,.3-.1-.4,.3-.6,.3-.5,.3-1.1,.5-1.3,.4-2.1,.4-3.4,.5-7.1,.4-14.2,.7-21.3,.8-3.5,.1-6.9,.1-10.4,.1s-6.8,.2-10.2-.1c-1.1-.1-1.8-.3-2.4-1.2-.8-1.2-1.2-2.6-1.5-4s-.4-2.7-.4-4.1c0-.7,0-1.5,.1-2.2,.1-.9,.4-.9-.5-.3-.3,.2,.3,.1,0,0,.1,0,.5,.2,.2,0,.6,.3,.4,.2,.9,.6,.1,.1,.4,.6,.5,.9-.1-.3,.2,.6,.1,.5,0,.2,.1,.4,.1,.6q0-.2,0,0v.8s-.1,1,0,.5c-.1,.4-.2,.9-.4,1.3-.5,1.2-1.4,2.2-2.3,3.1-4,3.9-9.4,6.6-14.5,8.6-11.7,4.5-24.3,5.4-36.8,4.5-7.7-.5-15.3-1.6-22.9-2.9-3.5-.6-7.3-.9-10.6-2.1-1.2-.5-2.2-1.1-2.9-2-.4-.5-.6-.9-.7-1.4-.2-.6-.1-.9,0-1.4l-3.7,2.1c21.5,7.6,45,9.3,67.4,4.8,5-1,10.4-3.1,11.5-8.7,.5-2.5,.1-5.1-1.2-7.3-1.5-2.5-4-3.5-6.3-5.2-.7-.5-1.3-1.1-1.7-1.9s-.7-1.6-.8-2.2c0-.6,0-1,.1-1.3,.1-.4,.1-.3,.3-.8,.3-.5,.1-.2,.1-.1,.2-.2,.3-.4,.5-.5,.4-.3-.5,.3,.2-.1,.1,0,.8-.4,.4-.2,.4-.1,.8-.3,1.1-.3-.5,.1,.1,0,.2,0,.5,0-.4-.1,.1,0,.2,0,.5,.1,.7,.2-.2,0-.3-.2,0,.1-.4-.3,0,0,.1,.1,.3,.3,.2,.1,.3,.5-.2-.3,.1,.3,.1,.4,.1,.5,0-.3,.1,.2s0,.8,0,1.1c-.2,1-.6,1.7-1.3,2.5-1.6,1.7-3.7,2.7-5.7,3.8-2.4,1.3-4.8,2.5-7.3,3.5-4.9,2.1-10.1,3.6-15.4,3.7-5.7,.1-11.4-1.2-16.9-2.5-4.7-1.2-8.8-3-12.1-6.5-6.4-6.8-7.3-17.3-2.2-25.2s14.2-11,22.7-13.1c5.5-1.4,11.1-2.5,16.7-2.2,2,.1,3.8,.5,5.9,1.1s3.6,1.3,5.5,2.4c7.2,4,12.7,11,14.8,19,.5,2.1,.8,3.6,.8,5.8l2.2-2.9c-.8,.2-.1,.1-.1,.1l1.5,2.6v-4.1c0-4.2-6-4.2-6-.4h0Z"/>
    <path d="M325.9,235.5c5.8,4.7,13.8,5.6,20.7,3s13.5-8.3,17.9-14.6c2.3-3.3,2.9-7.8-.1-10.9s-7.8-2.2-9.6,1.5-.4,7.7,2.6,10.3,6.6,4.7,10.1,6.6c8.1,4.5,17,7.5,26.3,5.9,1.6-.3,2.5-2.2,2.1-3.7-.5-1.7-2.1-2.4-3.7-2.1-5.8,1-11.9-.6-17.2-3-2.9-1.3-5.7-2.9-8.4-4.6-1.3-.8-2.6-1.6-3.8-2.5-1-.7-2.1-1.5-2.7-2.5,2.4,4.1-.3-.6-.2-.3,0-.1-.2-.9-.1-.4,0,.1,.1-.9,0-.5s.2-.6,.2-.5c-.1,.5,.3-.4,0,0,.2-.3,.2-.1,0-.1l.2-.1c-.1,.1-.3,.1-.4,.1,.7,.2,.1,0,0-.1,.3,.2,.4,.2,.4,.4-.1-.3,.2,.6,.2,.6-.1-.5,0,.5,0,.5-.1,1-.9,2.1-1.6,2.9-3.5,4.4-7.9,8.6-13.1,10.9s-11.4,2.4-15.7-1.1c-1.2-1-3-1.2-4.2,0-1,1.1-1.2,3.2,.1,4.3h0Z"/>
    <path d="M475.4,406.2c12.5,4.5,26.5,5.9,39.5,2.2,10.7-3,20.5-9.7,26.7-19,3.4-5.1,5.4-10.9,6.4-17,1.1-6.5,1.7-13.1,1.6-19.7s-.8-12.9-2.9-19-5.4-10.8-8.7-16c-1.5-2.3-2.9-4.6-3.9-7.1-1.2-2.8-1.6-5.6-1.6-8.6,0-3.6,.2-7-.5-10.6-.6-3.2-1.8-6.3-3-9.4-2.2-5.8-4.6-11.7-9.1-16.1-4-3.9-9.2-6.3-14.6-7.4s-11.2-1.2-16.9-.9c-6,.4-12.7,.9-17.1,5.5-2.2,2.3-3.6,5.2-4.7,8.1-1.3,3.2-2.2,6.5-2.7,9.8-1.1,6.7-.3,13.8-2.2,20.4-1.7,5.9-5.5,11-8.1,16.5-2.9,6.1-4.8,12.6-6.3,19.2s-3,13.4-3.4,20.2,1.5,13.5,5,19.5c1.5,2.7,3.2,5.2,5,7.7,1.1,1.6,3.2,2,4.7,.6,3.5-3.3,2.7-8.4,1.2-12.5-1.9-5.1-3.8-10.1-5.7-15.1l-5.5,2.3c1.9,4.1,6.9,6.3,11.2,6,5.2-.4,9.7-3.4,13.9-6.4,7.8-5.4,15.2-11.7,20.4-19.8,4.4-6.9,8.9-19.2-.3-24.5-2.1-1.2-4.4-1.7-6.6-2.5-1.9-.8-3.5-2-4.8-3.5-2.9-3.2-5-7.5-6.2-11.6s-.8-8.4,1.4-12.2,5.5-6.5,9.4-8.2c4.3-1.9,9.1-2.4,13.7-2.1,2.2,.1,4.6,.4,6.6,1.6,1.8,1.1,3,2.9,4.4,4.5,.8,.9,1.6,1.7,2.5,2.4s2,1.3,2.8,2c1.5,1.3,1.2,3.6,1.2,5.4-.1,5.2-.3,10.4-2,15.3-1.3,3.6-3.6,7.2-7,9.1-3.6,2.1-8.2,2.7-10.9,6.5-3.1,4.5-1,10.2,1.5,14.4,2.9,4.7,6.3,9.1,9.9,13.2,6.1,7.1,14.1,14.2,23.7,15.6,2.5,.4,4.9,.3,7.4-.1l-3.8-2.9c-.1,4-1.6,7.9-3.2,11.5-1.5,3.3-2.9,7-5.3,9.8s-6.1,4.3-9.7,5.4c-4,1.2-8.1,2.1-12.3,2.5-4.4,.5-8.8,.7-13.1,.8-3.1,.1-6.4,0-9.3-.6-.7-.1-1.5-.3-2.2-.5s-1.7-.5-2-.7c-1.4-.6-2.5-1.3-3.5-2.3-2.3-2.2-3.3-5.6-2.9-9.1,.6-6.5,6-12,11.9-14.6,6.4-2.8,14.5-3.1,21-1.5,2.9,.7,5.8,1.9,7.9,3.7,2.6,2.2,3.8,4.7,4.5,8.2,.8,4.1,1.3,8.5,1.3,12.6,0,3.5-.8,6.9-2.7,9.8-.8,1.1-1.9,2.2-3,2.9-.6,.4-1,.6-1.7,.7-.5,.1,.4,0-.2,0h-.5c.3,0,0,.1,0,0-.2-.1-.2,0,0,0l.1,.1c.1,.1,.1,.3,.2,.4,.3,.3-.2,.1,.2,0,.3-.1,1.3-.5,1.9-.6,2.1-.4,4.2-.7,6.3-1,8.8-1.3,17.8-1.8,26.7-1.8,2.3,0,4.5,0,6.8,.1,3.9,.1,3.9-5.9,0-6-10.4-.4-20.8,.1-31.1,1.4-2.7,.3-5.4,.7-8,1.2-2.4,.4-5,.8-6.8,2.5s-2.5,4.5-1.3,6.8c1.1,2.1,3.5,3,5.8,2.8,4.4-.4,8.1-3.8,10.2-7.4,2.4-4,3.2-8.7,3.1-13.2,0-2.5-.3-5-.7-7.5s-.6-5.1-1.3-7.5c-1.2-4.2-3.7-7.6-7.3-10.1-6.5-4.7-15.6-5.6-23.3-4.7-9.2,1.1-18,5.1-22.9,13.3s-4.4,18.5,3.3,24.2c6.5,4.9,15.6,4.5,23.3,4.2,9.9-.4,20.3-1.4,29.3-5.8,4.3-2.1,7.5-5.4,9.8-9.6s4.3-8.6,5.7-13.1c.7-2.4,1.2-4.9,1.2-7.5,.1-2.1-2-3.2-3.8-2.9-8.7,1.4-16.8-4.9-22.5-10.8-3.5-3.6-6.6-7.6-9.5-11.7-2-2.8-6.2-8-4-11.4,.7-1,2.5-1.9,3.8-2.4,2-.8,4.1-1.5,5.9-2.7,3.9-2.6,6.7-6.5,8.4-10.8,2-4.8,2.5-10.2,2.7-15.3,.1-2.6,.3-5.4-.2-8s-2.3-4.6-4.5-6.1c-1.8-1.2-3.2-2.5-4.6-4.2-1.5-1.8-3.2-3.5-5.3-4.6-4.5-2.3-10.1-2.4-15-1.9-9.6,1-19.1,5.9-23.1,15.2-2.1,4.7-2.4,9.7-1,14.6,1.3,4.7,3.6,9.2,6.6,13.1,1.4,1.8,3,3.3,4.9,4.6s4.2,2,6.4,2.8c1.8,.6,3.5,1.4,4.3,2.8,.3,.5,.2,.3,.3,.8,.1,.2,.3,1.2,.3,1,.1,1,.1,2,0,2.9-.2,1.5-.9,3.8-1.6,5.2-1,2-2.1,4-3.4,5.9-2.5,3.6-5.5,6.9-8.8,9.8s-7.1,5.8-10.9,8.3c-1.9,1.3-3.9,2.6-6.1,3.4-.9,.3-1.8,.6-2.8,.6-1.1,0-1.5,0-2.6-.3-1.5-.5-2.5-1.2-3.1-2.7-1.4-3.1-6.7-.9-5.5,2.3,1.7,4.5,3.4,8.9,5,13.4,.7,1.8,1.4,3.5,1.7,5.4,.2,1.3,.1,2.3-.7,3l4.7,.6c-3.3-4.9-6.8-9.9-8.4-15.7-1.6-6.1-.4-12.5,.8-18.7s2.4-12.5,4.4-18.5,4.7-10.9,7.5-16.2c1.5-2.8,2.9-5.6,3.9-8.6,1-3.2,1.5-6.5,1.7-9.9,.2-3.1,.2-6.3,.5-9.4s1.1-6.2,2-9.2c.8-2.5,1.8-5.2,3.5-7.4s3.8-3,6.3-3.6,5.1-.7,7.6-.9,5.3-.2,8-.1c4.8,.2,9.8,1,14,3.2,4.7,2.5,7.8,6.4,10,11.3,1.2,2.6,2.2,5.3,3.2,8s2.1,5.8,2.3,8.8c.3,3.2-.2,6.4,0,9.6s1,6.1,2.2,8.9c2.2,5,5.5,9.4,8.3,14,3.1,5,5,10.5,5.8,16.3s.8,11.7,.3,17.5c-.5,6.2-1.1,12.5-3.3,18.3-3.4,9.1-11.2,16.3-20,20.5-10.5,5-23,5.3-34.2,2.8-3-.7-5.9-1.5-8.7-2.5-1.5-.5-3.3,.6-3.7,2.1-.3,1.9,.7,3.3,2.2,3.9h0Z"/>
    <path d="M472.1,294.7c6.3,1.1,12.9,1.6,19-.8,5.2-2.1,10.5-6.4,11.1-12.3,.3-3-.9-5.8-3.5-7.3-2.3-1.4-5.6-1.4-7.6,.5-2.4,2.2-2.3,6-.6,8.5s4.5,4,7.2,5.4c6.2,3.1,13.2,4.7,20.1,4.5,3.8-.1,3.9-6.1,0-6-4.4,.1-8.8-.5-13-1.9-2-.7-3.9-1.5-5.7-2.5-1.3-.7-3.5-1.8-3.9-3.2,0-.1-.1-.4,0-.4l-.1,.1-.2,.1,.2-.1h-.1c-.2,.1-.1,.1,.1,0,0,0-.5,0-.1,0,.1,0,.6,.1,.3,0-.4-.1,.4,.1,.4,.2-.6-.2,.5,.3,.2,.2,0,0,.1,.1,.1,.2,.1,.6,.2,1.2,0,1.9-.9,3.2-4.4,5.6-7.4,6.6-4.9,1.8-10.1,1.4-15.1,.5-1.6-.3-3.2,.4-3.7,2.1-.1,1.5,.7,3.4,2.3,3.7h0Z"/>
  </g>
  <text class="cls-1" transform="translate(634.06 400.11) scale(1.23 1)"><tspan x="0" y="0">Bistro Babushka</tspan></text>
</svg>